<svg viewBox="0 0 800 600" xmlns="http://www.w3.org/2000/svg">
  <defs>
    <linearGradient id="bg1" x1="0" y1="0" x2="1" y2="1">
      <stop offset="0%" stop-color="#131c3a"/>
      <stop offset="100%" stop-color="#0a0d1a"/>
    </linearGradient>
  </defs>
  <rect width="800" height="600" fill="url(#bg1)"/>
  <line x1="136.7" y1="480.7" x2="204.7" y2="531.5" stroke="#8fa6ff" stroke-width="1" opacity="0.18"/><line x1="136.7" y1="480.7" x2="58.3" y2="321.5" stroke="#8fa6ff" stroke-width="1" opacity="0.18"/><line x1="589.9" y1="172.6" x2="641.8" y2="265.0" stroke="#8fa6ff" stroke-width="1" opacity="0.18"/><line x1="589.9" y1="172.6" x2="588.8" y2="41.1" stroke="#8fa6ff" stroke-width="1" opacity="0.18"/><line x1="589.9" y1="172.6" x2="689.0" y2="55.9" stroke="#8fa6ff" stroke-width="1" opacity="0.18"/><line x1="589.9" y1="172.6" x2="716.2" y2="238.2" stroke="#8fa6ff" stroke-width="1" opacity="0.18"/><line x1="396.7" y1="273.7" x2="360.7" y2="415.2" stroke="#8fa6ff" stroke-width="1" opacity="0.18"/><line x1="509.1" y1="450.1" x2="360.7" y2="415.2" stroke="#8fa6ff" stroke-width="1" opacity="0.18"/><line x1="107.6" y1="54.7" x2="60.9" y2="155.3" stroke="#8fa6ff" stroke-width="1" opacity="0.18"/><line x1="641.8" y1="265.0" x2="716.2" y2="238.2" stroke="#8fa6ff" stroke-width="1" opacity="0.18"/><line x1="588.8" y1="41.1" x2="689.0" y2="55.9" stroke="#8fa6ff" stroke-width="1" opacity="0.18"/><line x1="58.3" y1="321.5" x2="196.0" y2="259.5" stroke="#8fa6ff" stroke-width="1" opacity="0.18"/><line x1="58.3" y1="321.5" x2="60.9" y2="155.3" stroke="#8fa6ff" stroke-width="1" opacity="0.18"/><line x1="196.0" y1="259.5" x2="60.9" y2="155.3" stroke="#8fa6ff" stroke-width="1" opacity="0.18"/><circle cx="136.7" cy="480.7" r="2.2" fill="#8fa6ff" opacity="0.43"/><circle cx="589.9" cy="172.6" r="2.2" fill="#8fa6ff" opacity="0.43"/><circle cx="396.7" cy="273.7" r="2.2" fill="#8fa6ff" opacity="0.43"/><circle cx="509.1" cy="450.1" r="2.2" fill="#8fa6ff" opacity="0.43"/><circle cx="107.6" cy="54.7" r="2.2" fill="#8fa6ff" opacity="0.43"/><circle cx="641.8" cy="265.0" r="2.2" fill="#8fa6ff" opacity="0.43"/><circle cx="588.8" cy="41.1" r="2.2" fill="#8fa6ff" opacity="0.43"/><circle cx="360.7" cy="415.2" r="2.2" fill="#8fa6ff" opacity="0.43"/><circle cx="204.7" cy="531.5" r="2.2" fill="#8fa6ff" opacity="0.43"/><circle cx="689.0" cy="55.9" r="2.2" fill="#8fa6ff" opacity="0.43"/><circle cx="58.3" cy="321.5" r="2.2" fill="#8fa6ff" opacity="0.43"/><circle cx="716.2" cy="238.2" r="2.2" fill="#8fa6ff" opacity="0.43"/><circle cx="196.0" cy="259.5" r="2.2" fill="#8fa6ff" opacity="0.43"/><circle cx="60.9" cy="155.3" r="2.2" fill="#8fa6ff" opacity="0.43"/>
  
<g transform="translate(400,300)">
  <!-- rising bars -->
  <rect x="-180" y="10" width="40" height="90" rx="4" fill="#5dd9b0" opacity="0.85"/>
  <rect x="-120" y="-30" width="40" height="130" rx="4" fill="#8fa6ff" opacity="0.85"/>
  <rect x="-60" y="-70" width="40" height="170" rx="4" fill="#5dd9b0" opacity="0.65"/>
  <!-- ship hull silhouette -->
  <path d="M 20 60 L 220 60 L 190 110 L 40 110 Z" fill="#8fa6ff" opacity="0.9"/>
  <rect x="70" y="10" width="10" height="55" fill="#8fa6ff" opacity="0.9"/>
  <rect x="100" y="-10" width="10" height="75" fill="#8fa6ff" opacity="0.9"/>
  <path d="M 110 -10 L 160 25 L 110 25 Z" fill="#5dd9b0" opacity="0.8"/>
  <!-- water lines -->
  <path d="M -20 130 Q 40 115 100 130 T 220 130" stroke="#8fa6ff" stroke-width="2" fill="none" opacity="0.4"/>
  <path d="M -20 150 Q 40 135 100 150 T 220 150" stroke="#5dd9b0" stroke-width="2" fill="none" opacity="0.3"/>
  <!-- leaf sustainability icon -->
  <path d="M 210 -90 C 260 -100 280 -60 260 -20 C 220 -20 190 -50 210 -90 Z" fill="#5dd9b0" opacity="0.7"/>
  <path d="M 212 -88 C 225 -60 230 -40 258 -22" stroke="#0b0e1a" stroke-width="2" fill="none" opacity="0.4"/>
</g>

</svg>