<svg viewBox="0 0 800 600" xmlns="http://www.w3.org/2000/svg">
  <defs>
    <linearGradient id="bg7" x1="0" y1="0" x2="1" y2="1">
      <stop offset="0%" stop-color="#221a34"/>
      <stop offset="100%" stop-color="#0c0a17"/>
    </linearGradient>
  </defs>
  <rect width="800" height="600" fill="url(#bg7)"/>
  <line x1="273.2" y1="118.4" x2="129.1" y2="156.1" stroke="#c792ea" stroke-width="1" opacity="0.18"/><line x1="273.2" y1="118.4" x2="143.9" y2="101.3" stroke="#c792ea" stroke-width="1" opacity="0.18"/><line x1="508.7" y1="77.7" x2="425.8" y2="230.2" stroke="#c792ea" stroke-width="1" opacity="0.18"/><line x1="508.7" y1="77.7" x2="455.5" y2="246.3" stroke="#c792ea" stroke-width="1" opacity="0.18"/><line x1="425.8" y1="230.2" x2="455.5" y2="246.3" stroke="#c792ea" stroke-width="1" opacity="0.18"/><line x1="81.8" y1="303.9" x2="67.0" y2="265.5" stroke="#c792ea" stroke-width="1" opacity="0.18"/><line x1="81.8" y1="303.9" x2="129.1" y2="156.1" stroke="#c792ea" stroke-width="1" opacity="0.18"/><line x1="67.0" y1="265.5" x2="90.3" y2="87.2" stroke="#c792ea" stroke-width="1" opacity="0.18"/><line x1="67.0" y1="265.5" x2="129.1" y2="156.1" stroke="#c792ea" stroke-width="1" opacity="0.18"/><line x1="90.3" y1="87.2" x2="129.1" y2="156.1" stroke="#c792ea" stroke-width="1" opacity="0.18"/><line x1="90.3" y1="87.2" x2="143.9" y2="101.3" stroke="#c792ea" stroke-width="1" opacity="0.18"/><line x1="345.7" y1="470.0" x2="491.8" y2="532.8" stroke="#c792ea" stroke-width="1" opacity="0.18"/><line x1="345.7" y1="470.0" x2="262.1" y2="464.4" stroke="#c792ea" stroke-width="1" opacity="0.18"/><line x1="129.1" y1="156.1" x2="143.9" y2="101.3" stroke="#c792ea" stroke-width="1" opacity="0.18"/><line x1="742.9" y1="64.2" x2="658.1" y2="190.6" stroke="#c792ea" stroke-width="1" opacity="0.18"/><circle cx="273.2" cy="118.4" r="2.2" fill="#c792ea" opacity="0.43"/><circle cx="508.7" cy="77.7" r="2.2" fill="#c792ea" opacity="0.43"/><circle cx="425.8" cy="230.2" r="2.2" fill="#c792ea" opacity="0.43"/><circle cx="81.8" cy="303.9" r="2.2" fill="#c792ea" opacity="0.43"/><circle cx="67.0" cy="265.5" r="2.2" fill="#c792ea" opacity="0.43"/><circle cx="90.3" cy="87.2" r="2.2" fill="#c792ea" opacity="0.43"/><circle cx="345.7" cy="470.0" r="2.2" fill="#c792ea" opacity="0.43"/><circle cx="129.1" cy="156.1" r="2.2" fill="#c792ea" opacity="0.43"/><circle cx="491.8" cy="532.8" r="2.2" fill="#c792ea" opacity="0.43"/><circle cx="455.5" cy="246.3" r="2.2" fill="#c792ea" opacity="0.43"/><circle cx="742.9" cy="64.2" r="2.2" fill="#c792ea" opacity="0.43"/><circle cx="658.1" cy="190.6" r="2.2" fill="#c792ea" opacity="0.43"/><circle cx="143.9" cy="101.3" r="2.2" fill="#c792ea" opacity="0.43"/><circle cx="262.1" cy="464.4" r="2.2" fill="#c792ea" opacity="0.43"/>
  
<g transform="translate(400,300)">
  <polygon points="0,-110 95,-40 60,80 -60,80 -95,-40" fill="none" stroke="#c792ea" stroke-width="2.5" opacity="0.7"/>
  <polygon points="0,-70 65,-25 40,55 -40,55 -65,-25" fill="#ff9a44" opacity="0.22"/>
  <circle cx="0" cy="0" r="34" fill="none" stroke="#ff9a44" stroke-width="2.5" opacity="0.85"/>
  <circle cx="0" cy="0" r="10" fill="#ffffff" opacity="0.9"/>
  <g stroke="#c792ea" stroke-width="1.5" opacity="0.4">
    <line x1="0" y1="-110" x2="0" y2="-70"/>
    <line x1="95" y1="-40" x2="65" y2="-25"/>
    <line x1="60" y1="80" x2="40" y2="55"/>
    <line x1="-60" y1="80" x2="-40" y2="55"/>
    <line x1="-95" y1="-40" x2="-65" y2="-25"/>
  </g>
</g>

</svg>